HIERARCHY
ROOT RootFrame
{
	OFFSET 0 0 0
	CHANNELS 6 Xposition Yposition Zposition Zrotation Xrotation Yrotation
	JOINT Pelvis
	{
		OFFSET -3.5251e-007 94.5983 1.47851
		CHANNELS 3 Zrotation Xrotation Yrotation
		JOINT LLegUpper
		{
			OFFSET 8.61921 -3.43409 -0.319008
			CHANNELS 3 Zrotation Xrotation Yrotation
			JOINT LLegCalf
			{
				OFFSET 5.13797 -41.2338 -0.41111
				CHANNELS 3 Zrotation Xrotation Yrotation
				JOINT LLegAnkle
				{
					OFFSET 1.23055 -36.699 -6.98437
					CHANNELS 3 Zrotation Xrotation Yrotation
					JOINT LLegToe1
					{
						OFFSET 4.03061 -11.084 10.7943
						CHANNELS 3 Zrotation Xrotation Yrotation
						End Site
						{
							OFFSET 0 0 0
						}
					}
				}
			}
		}
		JOINT Spine1
		{
			OFFSET 0 0 0
			CHANNELS 3 Zrotation Xrotation Yrotation
			JOINT Spine2
			{
				OFFSET -1.42109e-012 20.238 0
				CHANNELS 3 Zrotation Xrotation Yrotation
				JOINT Spine3
				{
					OFFSET -2.41585e-012 20.238 1.19209e-007
					CHANNELS 3 Zrotation Xrotation Yrotation
					JOINT Neck1
					{
						OFFSET 3.52966e-007 25.7934 1.43051e-005
						CHANNELS 3 Zrotation Xrotation Yrotation
						JOINT NeckHead
						{
							OFFSET -1.31919e-012 7.20497 0
							CHANNELS 3 Zrotation Xrotation Yrotation
							JOINT Reyelid
							{
								OFFSET -3.4393 6.75359 9.06984
								CHANNELS 3 Zrotation Xrotation Yrotation
								End Site
								{
									OFFSET 0 0 0
								}
							}
							JOINT Leyelid
							{
								OFFSET 3.4393 6.75359 9.06984
								CHANNELS 3 Zrotation Xrotation Yrotation
								End Site
								{
									OFFSET 0 0 0
								}
							}
							JOINT Rbrow
							{
								OFFSET -3.55657 8.31168 10.4921
								CHANNELS 3 Zrotation Xrotation Yrotation
								End Site
								{
									OFFSET 0 0 0
								}
							}
							JOINT Lbrow
							{
								OFFSET 3.55657 8.31168 10.4921
								CHANNELS 3 Zrotation Xrotation Yrotation
								End Site
								{
									OFFSET 0 0 0
								}
							}
							JOINT Rmouth
							{
								OFFSET -2.99218 -1.99307 10.4921
								CHANNELS 3 Zrotation Xrotation Yrotation
								End Site
								{
									OFFSET 0 0 0
								}
							}
							JOINT Lmouth
							{
								OFFSET 2.99218 -1.99307 10.4921
								CHANNELS 3 Zrotation Xrotation Yrotation
								End Site
								{
									OFFSET 0 0 0
								}
							}
						}
					}
					JOINT RArmCollarbone
					{
						OFFSET -0.91666 21.7163 -4.76837e-007
						CHANNELS 3 Zrotation Xrotation Yrotation
						JOINT RArmUpper1
						{
							OFFSET -16.086 -5.87221 -1.62258
							CHANNELS 3 Zrotation Xrotation Yrotation
							JOINT RArmUpper2
							{
								OFFSET -9.39241 -9.29399 1.90783
								CHANNELS 3 Zrotation Xrotation Yrotation
								JOINT RArmForearm1
								{
									OFFSET -9.39241 -9.29399 1.90782
									CHANNELS 3 Zrotation Xrotation Yrotation
									JOINT RArmForearm2
									{
										OFFSET -3.92162 -4.93582 11.7676
										CHANNELS 3 Zrotation Xrotation Yrotation
										JOINT RArmHand
										{
											OFFSET -3.92163 -4.93581 11.7676
											CHANNELS 3 Zrotation Xrotation Yrotation
											JOINT RArmPinky1
											{
												OFFSET 1.49442 -7.67248 6.4453
												CHANNELS 3 Zrotation Xrotation Yrotation
												JOINT RArmPinky2
												{
													OFFSET 3.01939 -0.840492 1.43143
													CHANNELS 3 Zrotation Xrotation Yrotation
													JOINT RArmPinky3
													{
														OFFSET 1.71688 -0.155457 0.574268
														CHANNELS 3 Zrotation Xrotation Yrotation
														End Site
														{
															OFFSET 0 0 0
														}
													}
												}
											}
											JOINT RArmRing1
											{
												OFFSET 0.415699 -6.11449 8.20491
												CHANNELS 3 Zrotation Xrotation Yrotation
												JOINT RArmRing2
												{
													OFFSET 3.52583 -0.965538 3.21172
													CHANNELS 3 Zrotation Xrotation Yrotation
													JOINT RArmRing3
													{
														OFFSET 2.14619 -0.366417 1.62664
														CHANNELS 3 Zrotation Xrotation Yrotation
														End Site
														{
															OFFSET 0 0 0
														}
													}
												}
											}
											JOINT RArmMid1
											{
												OFFSET -0.41209 -3.60024 9.05726
												CHANNELS 3 Zrotation Xrotation Yrotation
												JOINT RArmMid2
												{
													OFFSET 3.62185 -1.05659 4.77322
													CHANNELS 3 Zrotation Xrotation Yrotation
													JOINT RArmMid3
													{
														OFFSET 2.19032 -0.0774002 1.65763
														CHANNELS 3 Zrotation Xrotation Yrotation
														End Site
														{
															OFFSET 0 0 0
														}
													}
												}
											}
											JOINT RArmIndex1
											{
												OFFSET -0.678616 -0.517052 9.83126
												CHANNELS 3 Zrotation Xrotation Yrotation
												JOINT RArmIndex2
												{
													OFFSET 1.82534 -0.632805 4.81508
													CHANNELS 3 Zrotation Xrotation Yrotation
													JOINT RArmIndex3
													{
														OFFSET 1.6771 0.105896 1.82664
														CHANNELS 3 Zrotation Xrotation Yrotation
														End Site
														{
															OFFSET 0 0 0
														}
													}
												}
											}
											JOINT RArmThumb1
											{
												OFFSET 0.534355 2.8312 2.29797
												CHANNELS 3 Zrotation Xrotation Yrotation
												JOINT RArmThumb2
												{
													OFFSET 2.0046 0.711784 3.18902
													CHANNELS 3 Zrotation Xrotation Yrotation
													JOINT RArmThumb3
													{
														OFFSET 2.45937 -0.133209 3.55324
														CHANNELS 3 Zrotation Xrotation Yrotation
														End Site
														{
															OFFSET 0 0 0
														}
													}
												}
											}
											JOINT M4MB
											{
												OFFSET 4.18665 -2.28949 7.22334
												CHANNELS 3 Zrotation Xrotation Yrotation
												End Site
												{
													OFFSET 0 0 0
												}
											}
										}
									}
								}
							}
						}
					}
					JOINT LArmCollarbone
					{
						OFFSET 0.91666 21.7163 -3.57628e-007
						CHANNELS 3 Zrotation Xrotation Yrotation
						JOINT LArmUpper1
						{
							OFFSET 16.086 -5.87219 -1.62258
							CHANNELS 3 Zrotation Xrotation Yrotation
							JOINT LArmUpper2
							{
								OFFSET 9.3924 -9.29399 1.90783
								CHANNELS 3 Zrotation Xrotation Yrotation
								JOINT LArmForearm1
								{
									OFFSET 9.39241 -9.29398 1.90783
									CHANNELS 3 Zrotation Xrotation Yrotation
									JOINT LArmForearm2
									{
										OFFSET 3.92161 -4.93583 11.7676
										CHANNELS 3 Zrotation Xrotation Yrotation
										JOINT LArmHand
										{
											OFFSET 3.92163 -4.93582 11.7676
											CHANNELS 3 Zrotation Xrotation Yrotation
											JOINT LArmPinky1
											{
												OFFSET -1.49442 -7.67248 6.44531
												CHANNELS 3 Zrotation Xrotation Yrotation
												JOINT LArmPinky2
												{
													OFFSET -3.01938 -0.840477 1.43142
													CHANNELS 3 Zrotation Xrotation Yrotation
													JOINT LArmPinky3
													{
														OFFSET -1.71687 -0.155464 0.57428
														CHANNELS 3 Zrotation Xrotation Yrotation
														End Site
														{
															OFFSET 0 0 0
														}
													}
												}
											}
											JOINT LArmRing1
											{
												OFFSET -0.41571 -6.11449 8.20491
												CHANNELS 3 Zrotation Xrotation Yrotation
												JOINT LArmRing2
												{
													OFFSET -3.52583 -0.965546 3.21173
													CHANNELS 3 Zrotation Xrotation Yrotation
													JOINT LArmRing3
													{
														OFFSET -2.14619 -0.366417 1.62665
														CHANNELS 3 Zrotation Xrotation Yrotation
														End Site
														{
															OFFSET 0 0 0
														}
													}
												}
											}
											JOINT LArmMid1
											{
												OFFSET 0.41209 -3.60023 9.05727
												CHANNELS 3 Zrotation Xrotation Yrotation
												JOINT LArmMid2
												{
													OFFSET -3.62185 -1.05659 4.77322
													CHANNELS 3 Zrotation Xrotation Yrotation
													JOINT LArmMid3
													{
														OFFSET -2.19033 -0.0773849 1.65763
														CHANNELS 3 Zrotation Xrotation Yrotation
														End Site
														{
															OFFSET 0 0 0
														}
													}
												}
											}
											JOINT LArmIndex1
											{
												OFFSET 0.678612 -0.517052 9.83127
												CHANNELS 3 Zrotation Xrotation Yrotation
												JOINT LArmIndex2
												{
													OFFSET -1.82534 -0.632805 4.81507
													CHANNELS 3 Zrotation Xrotation Yrotation
													JOINT LArmIndex3
													{
														OFFSET -1.6771 0.105919 1.82664
														CHANNELS 3 Zrotation Xrotation Yrotation
														End Site
														{
															OFFSET 0 0 0
														}
													}
												}
											}
											JOINT LArmThumb1
											{
												OFFSET -0.534363 2.83121 2.29797
												CHANNELS 3 Zrotation Xrotation Yrotation
												JOINT LArmThumb2
												{
													OFFSET -2.0046 0.711777 3.18902
													CHANNELS 3 Zrotation Xrotation Yrotation
													JOINT LArmThumb3
													{
														OFFSET -2.45937 -0.133202 3.55324
														CHANNELS 3 Zrotation Xrotation Yrotation
														End Site
														{
															OFFSET 0 0 0
														}
													}
												}
											}
										}
									}
								}
							}
						}
					}
				}
			}
		}
		JOINT RLegUpper
		{
			OFFSET -8.61921 -3.43409 -0.31901
			CHANNELS 3 Zrotation Xrotation Yrotation
			JOINT RLegCalf
			{
				OFFSET -5.13055 -41.2347 -0.407447
				CHANNELS 3 Zrotation Xrotation Yrotation
				JOINT RLegAnkle
				{
					OFFSET -1.24166 -36.6967 -6.99426
					CHANNELS 3 Zrotation Xrotation Yrotation
					JOINT RLegToe1
					{
						OFFSET -4.02313 -11.0861 10.7949
						CHANNELS 3 Zrotation Xrotation Yrotation
						End Site
						{
							OFFSET 0 0 0
						}
					}
				}
			}
		}
	}
	JOINT unity_pilot_01
	{
		OFFSET 0 0 0
		CHANNELS 3 Zrotation Xrotation Yrotation
		End Site
		{
			OFFSET 0 0 0
		}
	}
}
MOTION
Frames: 4
Frame Time: 0.033333
0 0 0 0 0 0 -2.50447e-006 -1.362e-013 -2.55924 -0.373152 2.88141 0.282051 4.34516 -4.91293 -0.82885 -1.71089 2.19849 2.98107 -0.00283428 0.0269326 0.00701425 0.0482911 -0.00278324 -0.430482 0.27717 -0.0209396 -2.47389 0.277118 -0.020934 -2.47338 -0.0732337 0.0806785 -8.92491 -0.196656 0.233745 -16.3457 6.53404e-006 6.23023e-007 -6.79413e-006 6.53404e-006 6.23023e-007 -6.79413e-006 6.53404e-006 6.23023e-007 -6.79413e-006 6.53404e-006 6.23023e-007 -6.79413e-006 6.53404e-006 6.23023e-007 -6.79413e-006 6.53404e-006 6.23023e-007 -6.79413e-006 -15.64 1.34157 -5.32662 9.45183 8.01666 37.2276 -0.527797 2.35022 2.34712 -1.56937 -30.6331 32.448 -1.12645 0.370229 0.475485 -5.03223 31.0184 2.57756 15.8328 -15.9969 10.3812 37.0988 -0.612333 28.094 -5.47792e-006 1.69458e-005 6.32388e-006 20.0782 -9.12597 35.7199 41.0314 1.95047 58.7618 -1.15647e-006 -3.95218e-006 4.21944e-006 9.73393 -2.30631 38.13 33.7788 -0.474067 66.8285 -3.31079e-007 6.01565e-006 4.34599e-006 -13.8762 0.763499 -7.1863 13.1395 -8.90939 37.8804 -2.83961e-006 -5.77218e-006 1.2098e-005 -34.6473 -8.33838 -4.29629 -0.570176 0.833113 0.246997 -1.43684e-007 -3.73653e-006 4.68536e-006 1.55151e-006 -6.266e-007 -5.51004e-007 -0.183162 -6.08254 -3.86661 -6.20219 7.48172 -15.9748 0.666343 2.90088 -2.90406 0.22675 2.76776 -19.5731 -12.1327 -4.6182 4.69378 -54.4468 -47.0214 52.4591 13.7911 -39.5062 14.2512 -26.4801 -2.3221 -20.0724 2.61141e-006 3.16167e-006 1.72062e-006 6.72174 -27.7768 1.57976 -26.1631 -3.84145 -37.128 -3.79297e-006 -4.40838e-006 -1.10247e-006 9.94028 -16.3979 -2.36815 -16.9593 -5.34076 -33.6464 -3.30593e-006 -9.19365e-007 -6.81871e-006 18.7268 -5.48561 10.912 1.85122 2.83344 7.65564 -2.04725e-006 -8.0185e-007 4.73039e-006 7.08483 -4.911 13.1483 1.59869 -3.55425 -5.47097 -5.85393e-006 -8.08704e-007 8.53016e-006 3.26726 -2.2064 0.0179576 -3.14867 3.82055 0.305688 -1.51337 -0.713476 2.73157 -1.94129e-006 -6.56336e-006 -7.04102e-007 0 0 0 
0 0 0 0 0 0 -2.50447e-006 -1.21904e-013 -2.43686 -0.363256 2.80367 0.272039 4.33124 -4.80523 -0.823501 -1.70587 2.16938 2.85447 -0.00283428 0.0269326 0.00701425 0.0477814 -0.0027773 -0.425916 0.274232 -0.0208019 -2.44765 0.274167 -0.0207969 -2.44715 -0.0739852 0.108366 -8.3984 -0.193187 0.244513 -14.8653 1.33135e-006 -3.13892e-006 -4.21811e-006 1.33135e-006 -3.13892e-006 -4.21811e-006 1.33135e-006 -3.13892e-006 -4.21811e-006 1.33135e-006 -3.13892e-006 -4.21811e-006 1.33135e-006 -3.13892e-006 -4.21811e-006 1.33135e-006 -3.13892e-006 -4.21811e-006 -15.6401 1.34154 -5.32663 9.45941 8.07137 37.2706 -0.527911 2.35069 2.34759 -1.62932 -30.541 32.3474 -1.13448 0.372825 0.478891 -5.09495 30.9941 2.64694 15.8328 -15.9969 10.3812 37.0988 -0.612329 28.094 -3.06396e-006 1.86078e-005 3.29448e-006 20.0782 -9.12597 35.7199 41.0314 1.95047 58.7618 -7.38015e-006 -5.95892e-006 2.53025e-006 9.73393 -2.30631 38.13 33.7787 -0.474064 66.8285 1.09544e-006 6.98059e-006 -1.44404e-006 -13.8762 0.763512 -7.18632 13.1394 -8.90939 37.8804 -5.28926e-006 -4.16237e-007 1.89259e-006 -34.6473 -8.33838 -4.29629 -0.570182 0.833106 0.246993 4.06701e-006 -2.68418e-006 1.40826e-005 1.55151e-006 -6.266e-007 -5.51004e-007 -0.183166 -6.08254 -3.86661 -6.28041 7.55215 -16.2092 0.666343 2.9009 -2.90407 0.342531 3.0143 -19.2995 -12.1523 -4.62655 4.70067 -54.8715 -47.0796 52.0227 13.7911 -39.5062 14.2512 -26.4801 -2.3221 -20.0724 4.54886e-006 -9.51773e-006 7.27112e-006 6.72173 -27.7768 1.57977 -26.1631 -3.84145 -37.128 -5.63742e-006 3.91773e-008 -6.77696e-006 9.94028 -16.3979 -2.36814 -16.9593 -5.34075 -33.6464 1.68053e-008 1.75395e-006 -4.44352e-006 18.7268 -5.48561 10.912 1.85122 2.83345 7.65563 5.6953e-006 -5.15564e-006 1.06802e-005 7.08482 -4.91099 13.1483 1.59869 -3.55425 -5.47097 -6.04241e-006 6.22516e-006 5.19206e-006 3.26932 -2.1751 0.0139314 -3.15208 3.79404 0.307489 -1.51216 -0.718467 2.6098 -1.94129e-006 -6.56336e-006 -7.04102e-007 0 0 0 
0 0 0 0 0 0 -2.50447e-006 -1.17223e-013 -2.37594 -0.359765 2.76122 0.266772 4.32328 -4.74371 -0.820425 -1.70082 2.15081 2.79063 -0.00283428 0.0269326 0.00701425 0.0474891 -0.00277383 -0.423333 0.272558 -0.0207227 -2.4328 0.272502 -0.0207177 -2.4323 -0.0734211 0.113241 -8.12285 -0.192426 0.255153 -14.0904 4.28621e-006 -1.35133e-006 -2.81984e-006 4.28621e-006 -1.35133e-006 -2.81984e-006 4.28621e-006 -1.35133e-006 -2.81984e-006 4.28621e-006 -1.35133e-006 -2.81984e-006 4.28621e-006 -1.35133e-006 -2.81984e-006 4.28621e-006 -1.35133e-006 -2.81984e-006 -15.6401 1.34156 -5.32662 9.46552 8.11399 37.3043 -0.527856 2.35045 2.34735 -1.6649 -30.4885 32.2863 -1.14265 0.375474 0.482365 -5.15458 31.0773 2.67904 15.8328 -15.9969 10.3812 37.0989 -0.61233 28.094 -5.33059e-006 1.33778e-005 2.87443e-006 20.0782 -9.12597 35.7199 41.0314 1.95048 58.7618 -7.00263e-006 -4.5837e-006 4.13778e-006 9.73393 -2.30631 38.13 33.7787 -0.474065 66.8285 3.77363e-008 1.1672e-005 1.52437e-006 -13.8762 0.763508 -7.18631 13.1394 -8.90939 37.8804 -5.101e-007 1.19148e-006 3.98603e-006 -34.6473 -8.33838 -4.29629 -0.57018 0.83311 0.24699 -1.02658e-006 -2.954e-006 9.45639e-006 1.55151e-006 -6.266e-007 -5.51004e-007 -0.18316 -6.08255 -3.86661 -6.34292 7.60688 -16.3932 0.666342 2.90089 -2.90407 0.432952 3.20939 -19.0839 -12.1677 -4.63311 4.70607 -55.2065 -47.1229 51.6791 13.7911 -39.5062 14.2512 -26.4801 -2.3221 -20.0724 4.84633e-006 -2.60402e-006 3.96485e-006 6.72173 -27.7768 1.57978 -26.1631 -3.84145 -37.128 -3.60188e-006 -1.94813e-006 -6.03366e-006 9.94028 -16.3979 -2.36814 -16.9593 -5.34074 -33.6464 -6.47741e-007 1.21929e-006 -1.62189e-006 18.7268 -5.4856 10.912 1.85122 2.83345 7.65563 4.52403e-006 -6.39681e-006 8.12976e-006 7.08483 -4.91099 13.1483 1.59869 -3.55425 -5.47097 -6.15319e-006 3.82597e-006 3.95057e-006 3.26863 -2.15886 0.0120218 -3.15418 3.77949 0.308533 -1.50944 -0.720221 2.54897 -1.94129e-006 -6.56336e-006 -7.04102e-007 0 0 0 
0 0 0 0 0 0 -2.50447e-006 -1.17557e-013 -2.31501 -0.356277 2.71878 0.261504 4.31531 -4.6822 -0.817337 -1.69579 2.13223 2.72679 -0.00283428 0.0269326 0.00701425 0.0471968 -0.00277038 -0.42075 0.270883 -0.020644 -2.41796 0.270838 -0.0206389 -2.41746 -0.0728804 0.118118 -7.84731 -0.191808 0.265803 -13.3156 7.24107e-006 4.36259e-007 -1.42157e-006 7.24107e-006 4.36259e-007 -1.42157e-006 7.24107e-006 4.36259e-007 -1.42157e-006 7.24107e-006 4.36259e-007 -1.42157e-006 7.24107e-006 4.36259e-007 -1.42157e-006 7.24107e-006 4.36259e-007 -1.42157e-006 -15.6401 1.34158 -5.32661 9.4716 8.1566 37.3381 -0.527797 2.35021 2.3471 -1.70039 -30.4359 32.2253 -1.15083 0.378124 0.48584 -5.21431 31.1604 2.71126 15.8328 -15.9969 10.3812 37.0988 -0.61233 28.094 -6.04666e-006 1.06978e-005 3.61547e-006 20.0782 -9.12596 35.7199 41.0314 1.95048 58.7618 -5.24179e-006 -8.57654e-007 3.8266e-006 9.73393 -2.3063 38.13 33.7787 -0.474063 66.8285 7.42784e-008 1.75957e-005 1.52437e-006 -13.8762 0.763506 -7.18631 13.1395 -8.90939 37.8804 8.17469e-007 1.33913e-007 5.68755e-006 -34.6473 -8.33838 -4.29629 -0.57018 0.833115 0.246991 -4.51311e-006 -5.24399e-006 5.56476e-006 1.55151e-006 -6.266e-007 -5.51004e-007 -0.18316 -6.08254 -3.86661 -6.40526 7.6618 -16.5772 0.666343 2.90088 -2.90406 0.522662 3.40482 -18.8685 -12.1831 -4.63968 4.71147 -55.5422 -47.1648 51.3348 13.7911 -39.5062 14.2512 -26.4801 -2.3221 -20.0724 4.13026e-006 7.59829e-008 -6.03447e-007 6.72174 -27.7768 1.57978 -26.1631 -3.84144 -37.128 -3.87666e-006 2.52453e-007 -4.37183e-006 9.94027 -16.3979 -2.36814 -16.9593 -5.34074 -33.6464 -1.74199e-006 2.45156e-006 -3.07758e-006 18.7268 -5.4856 10.912 1.85122 2.83345 7.65563 2.25435e-006 -6.81076e-006 2.63695e-006 7.08483 -4.91099 13.1483 1.59869 -3.55425 -5.47097 -5.71629e-006 3.28612e-006 5.31185e-006 3.26795 -2.14261 0.0101107 -3.15627 3.76493 0.309572 -1.50673 -0.72199 2.48812 -1.94129e-006 -6.56336e-006 -7.04102e-007 0 0 0 
